<mxfile host="app.diagrams.net" modified="2024-02-25T14:26:31.926Z" agent="Mozilla/5.0 (Windows NT 10.0; Win64; x64) AppleWebKit/537.36 (KHTML, like Gecko) Chrome/122.0.0.0 Safari/537.36 Edg/122.0.0.0" etag="BDkuSer9n45hfitg_VxW" version="23.1.6" type="device">
  <diagram name="Сторінка-1" id="_XXKR_IUMBMaYtfP8-WY">
    <mxGraphModel dx="2053" dy="742" grid="1" gridSize="10" guides="1" tooltips="1" connect="1" arrows="1" fold="1" page="1" pageScale="1" pageWidth="827" pageHeight="1169" math="0" shadow="0">
      <root>
        <mxCell id="0" />
        <mxCell id="1" parent="0" />
        <mxCell id="greT-Am3jdn_44DYWwTs-17" value="" style="ellipse;whiteSpace=wrap;html=1;align=center;aspect=fixed;fillColor=none;strokeColor=none;resizable=0;perimeter=centerPerimeter;rotatable=0;allowArrows=0;points=[];outlineConnect=1;" parent="1" vertex="1">
          <mxGeometry x="405" y="220" width="10" height="10" as="geometry" />
        </mxCell>
        <mxCell id="greT-Am3jdn_44DYWwTs-21" value="" style="ellipse;whiteSpace=wrap;html=1;align=center;aspect=fixed;fillColor=none;strokeColor=none;resizable=0;perimeter=centerPerimeter;rotatable=0;allowArrows=0;points=[];outlineConnect=1;" parent="1" vertex="1">
          <mxGeometry x="400" y="220" width="10" height="10" as="geometry" />
        </mxCell>
        <mxCell id="greT-Am3jdn_44DYWwTs-32" value="Use" style="endArrow=open;endSize=12;dashed=1;html=1;rounded=0;" parent="1" source="UCy_45d5EXnEg_kL4lnL-43" target="UCy_45d5EXnEg_kL4lnL-31" edge="1">
          <mxGeometry width="160" relative="1" as="geometry">
            <mxPoint x="360.00000000000045" y="181.33333333333326" as="sourcePoint" />
            <mxPoint x="600" y="250" as="targetPoint" />
          </mxGeometry>
        </mxCell>
        <mxCell id="greT-Am3jdn_44DYWwTs-74" value="Use" style="endArrow=open;endSize=12;dashed=1;html=1;rounded=0;" parent="1" source="UCy_45d5EXnEg_kL4lnL-40" target="UCy_45d5EXnEg_kL4lnL-5" edge="1">
          <mxGeometry width="160" relative="1" as="geometry">
            <mxPoint x="261.47058823529414" y="210" as="sourcePoint" />
            <mxPoint x="100" y="406.0526315789473" as="targetPoint" />
          </mxGeometry>
        </mxCell>
        <mxCell id="greT-Am3jdn_44DYWwTs-75" value="Use" style="endArrow=open;endSize=12;dashed=1;html=1;rounded=0;entryX=1;entryY=0.5;entryDx=0;entryDy=0;" parent="1" source="UCy_45d5EXnEg_kL4lnL-40" target="UCy_45d5EXnEg_kL4lnL-3" edge="1">
          <mxGeometry width="160" relative="1" as="geometry">
            <mxPoint x="230" y="182.58064516129025" as="sourcePoint" />
            <mxPoint x="50" y="217.41935483870952" as="targetPoint" />
          </mxGeometry>
        </mxCell>
        <mxCell id="greT-Am3jdn_44DYWwTs-76" value="Use" style="endArrow=open;endSize=12;dashed=1;html=1;rounded=0;" parent="1" source="UCy_45d5EXnEg_kL4lnL-40" target="UCy_45d5EXnEg_kL4lnL-1" edge="1">
          <mxGeometry width="160" relative="1" as="geometry">
            <mxPoint x="230" y="160.4999999999999" as="sourcePoint" />
            <mxPoint x="170" y="103.5" as="targetPoint" />
          </mxGeometry>
        </mxCell>
        <mxCell id="greT-Am3jdn_44DYWwTs-77" value="Use" style="endArrow=open;endSize=12;dashed=1;html=1;rounded=0;" parent="1" source="UCy_45d5EXnEg_kL4lnL-40" target="UCy_45d5EXnEg_kL4lnL-19" edge="1">
          <mxGeometry width="160" relative="1" as="geometry">
            <mxPoint x="286.0204081632651" y="210" as="sourcePoint" />
            <mxPoint x="286.9718309859154" y="360" as="targetPoint" />
          </mxGeometry>
        </mxCell>
        <mxCell id="greT-Am3jdn_44DYWwTs-78" value="Use" style="endArrow=open;endSize=12;dashed=1;html=1;rounded=0;" parent="1" source="UCy_45d5EXnEg_kL4lnL-40" target="UCy_45d5EXnEg_kL4lnL-27" edge="1">
          <mxGeometry width="160" relative="1" as="geometry">
            <mxPoint x="326.9903737259342" y="210" as="sourcePoint" />
            <mxPoint x="520.98" y="452.55999999999995" as="targetPoint" />
          </mxGeometry>
        </mxCell>
        <mxCell id="greT-Am3jdn_44DYWwTs-79" value="Use" style="endArrow=open;endSize=12;dashed=1;html=1;rounded=0;" parent="1" source="UCy_45d5EXnEg_kL4lnL-40" target="UCy_45d5EXnEg_kL4lnL-29" edge="1">
          <mxGeometry width="160" relative="1" as="geometry">
            <mxPoint x="353.38609112709855" y="210" as="sourcePoint" />
            <mxPoint x="538.4699999999998" y="336.79999999999995" as="targetPoint" />
          </mxGeometry>
        </mxCell>
        <mxCell id="UCy_45d5EXnEg_kL4lnL-1" value="traps" style="html=1;dropTarget=0;whiteSpace=wrap;" vertex="1" parent="1">
          <mxGeometry x="-70" y="120" width="180" height="90" as="geometry" />
        </mxCell>
        <mxCell id="UCy_45d5EXnEg_kL4lnL-2" value="" style="shape=module;jettyWidth=8;jettyHeight=4;" vertex="1" parent="UCy_45d5EXnEg_kL4lnL-1">
          <mxGeometry x="1" width="20" height="20" relative="1" as="geometry">
            <mxPoint x="-27" y="7" as="offset" />
          </mxGeometry>
        </mxCell>
        <mxCell id="UCy_45d5EXnEg_kL4lnL-3" value="TextureManager" style="html=1;dropTarget=0;whiteSpace=wrap;" vertex="1" parent="1">
          <mxGeometry x="-140" y="310" width="180" height="90" as="geometry" />
        </mxCell>
        <mxCell id="UCy_45d5EXnEg_kL4lnL-4" value="" style="shape=module;jettyWidth=8;jettyHeight=4;" vertex="1" parent="UCy_45d5EXnEg_kL4lnL-3">
          <mxGeometry x="1" width="20" height="20" relative="1" as="geometry">
            <mxPoint x="-27" y="7" as="offset" />
          </mxGeometry>
        </mxCell>
        <mxCell id="UCy_45d5EXnEg_kL4lnL-15" value="" style="group" vertex="1" connectable="0" parent="1">
          <mxGeometry x="-90" y="450" width="180" height="300" as="geometry" />
        </mxCell>
        <mxCell id="UCy_45d5EXnEg_kL4lnL-5" value="All_Platforms" style="html=1;dropTarget=0;whiteSpace=wrap;" vertex="1" parent="UCy_45d5EXnEg_kL4lnL-15">
          <mxGeometry width="180" height="300" as="geometry" />
        </mxCell>
        <mxCell id="UCy_45d5EXnEg_kL4lnL-6" value="" style="shape=module;jettyWidth=8;jettyHeight=4;" vertex="1" parent="UCy_45d5EXnEg_kL4lnL-5">
          <mxGeometry x="1" width="20" height="20" relative="1" as="geometry">
            <mxPoint x="-27" y="7" as="offset" />
          </mxGeometry>
        </mxCell>
        <mxCell id="UCy_45d5EXnEg_kL4lnL-7" value="Platform" style="html=1;dropTarget=0;whiteSpace=wrap;" vertex="1" parent="UCy_45d5EXnEg_kL4lnL-15">
          <mxGeometry width="120" height="50" as="geometry" />
        </mxCell>
        <mxCell id="UCy_45d5EXnEg_kL4lnL-8" value="" style="shape=module;jettyWidth=8;jettyHeight=4;" vertex="1" parent="UCy_45d5EXnEg_kL4lnL-7">
          <mxGeometry x="1" width="20" height="20" relative="1" as="geometry">
            <mxPoint x="-27" y="7" as="offset" />
          </mxGeometry>
        </mxCell>
        <mxCell id="UCy_45d5EXnEg_kL4lnL-9" value="ExtremePlatform" style="html=1;dropTarget=0;whiteSpace=wrap;" vertex="1" parent="UCy_45d5EXnEg_kL4lnL-15">
          <mxGeometry y="50" width="120" height="50" as="geometry" />
        </mxCell>
        <mxCell id="UCy_45d5EXnEg_kL4lnL-10" value="" style="shape=module;jettyWidth=8;jettyHeight=4;" vertex="1" parent="UCy_45d5EXnEg_kL4lnL-9">
          <mxGeometry x="1" width="20" height="20" relative="1" as="geometry">
            <mxPoint x="-27" y="7" as="offset" />
          </mxGeometry>
        </mxCell>
        <mxCell id="UCy_45d5EXnEg_kL4lnL-11" value="MovingPlatform" style="html=1;dropTarget=0;whiteSpace=wrap;" vertex="1" parent="UCy_45d5EXnEg_kL4lnL-15">
          <mxGeometry y="250" width="120" height="50" as="geometry" />
        </mxCell>
        <mxCell id="UCy_45d5EXnEg_kL4lnL-12" value="" style="shape=module;jettyWidth=8;jettyHeight=4;" vertex="1" parent="UCy_45d5EXnEg_kL4lnL-11">
          <mxGeometry x="1" width="20" height="20" relative="1" as="geometry">
            <mxPoint x="-27" y="7" as="offset" />
          </mxGeometry>
        </mxCell>
        <mxCell id="UCy_45d5EXnEg_kL4lnL-13" value="WhitePlatform" style="html=1;dropTarget=0;whiteSpace=wrap;" vertex="1" parent="UCy_45d5EXnEg_kL4lnL-15">
          <mxGeometry y="200" width="120" height="50" as="geometry" />
        </mxCell>
        <mxCell id="UCy_45d5EXnEg_kL4lnL-14" value="" style="shape=module;jettyWidth=8;jettyHeight=4;" vertex="1" parent="UCy_45d5EXnEg_kL4lnL-13">
          <mxGeometry x="1" width="20" height="20" relative="1" as="geometry">
            <mxPoint x="-27" y="7" as="offset" />
          </mxGeometry>
        </mxCell>
        <mxCell id="UCy_45d5EXnEg_kL4lnL-16" value="" style="group" vertex="1" connectable="0" parent="1">
          <mxGeometry x="150" y="494" width="180" height="300" as="geometry" />
        </mxCell>
        <mxCell id="UCy_45d5EXnEg_kL4lnL-17" value="All_levels" style="html=1;dropTarget=0;whiteSpace=wrap;" vertex="1" parent="UCy_45d5EXnEg_kL4lnL-16">
          <mxGeometry width="180" height="300" as="geometry" />
        </mxCell>
        <mxCell id="UCy_45d5EXnEg_kL4lnL-18" value="" style="shape=module;jettyWidth=8;jettyHeight=4;" vertex="1" parent="UCy_45d5EXnEg_kL4lnL-17">
          <mxGeometry x="1" width="20" height="20" relative="1" as="geometry">
            <mxPoint x="-27" y="7" as="offset" />
          </mxGeometry>
        </mxCell>
        <mxCell id="UCy_45d5EXnEg_kL4lnL-19" value="EasyLevel" style="html=1;dropTarget=0;whiteSpace=wrap;" vertex="1" parent="UCy_45d5EXnEg_kL4lnL-16">
          <mxGeometry width="120" height="50" as="geometry" />
        </mxCell>
        <mxCell id="UCy_45d5EXnEg_kL4lnL-20" value="" style="shape=module;jettyWidth=8;jettyHeight=4;" vertex="1" parent="UCy_45d5EXnEg_kL4lnL-19">
          <mxGeometry x="1" width="20" height="20" relative="1" as="geometry">
            <mxPoint x="-27" y="7" as="offset" />
          </mxGeometry>
        </mxCell>
        <mxCell id="UCy_45d5EXnEg_kL4lnL-23" value="HardLevel" style="html=1;dropTarget=0;whiteSpace=wrap;" vertex="1" parent="UCy_45d5EXnEg_kL4lnL-16">
          <mxGeometry y="250" width="120" height="50" as="geometry" />
        </mxCell>
        <mxCell id="UCy_45d5EXnEg_kL4lnL-24" value="" style="shape=module;jettyWidth=8;jettyHeight=4;" vertex="1" parent="UCy_45d5EXnEg_kL4lnL-23">
          <mxGeometry x="1" width="20" height="20" relative="1" as="geometry">
            <mxPoint x="-27" y="7" as="offset" />
          </mxGeometry>
        </mxCell>
        <mxCell id="UCy_45d5EXnEg_kL4lnL-25" value="MediumLevel" style="html=1;dropTarget=0;whiteSpace=wrap;" vertex="1" parent="UCy_45d5EXnEg_kL4lnL-16">
          <mxGeometry y="200" width="120" height="50" as="geometry" />
        </mxCell>
        <mxCell id="UCy_45d5EXnEg_kL4lnL-26" value="" style="shape=module;jettyWidth=8;jettyHeight=4;" vertex="1" parent="UCy_45d5EXnEg_kL4lnL-25">
          <mxGeometry x="1" width="20" height="20" relative="1" as="geometry">
            <mxPoint x="-27" y="7" as="offset" />
          </mxGeometry>
        </mxCell>
        <mxCell id="UCy_45d5EXnEg_kL4lnL-27" value="Score" style="html=1;dropTarget=0;whiteSpace=wrap;" vertex="1" parent="1">
          <mxGeometry x="360" y="615" width="180" height="90" as="geometry" />
        </mxCell>
        <mxCell id="UCy_45d5EXnEg_kL4lnL-28" value="" style="shape=module;jettyWidth=8;jettyHeight=4;" vertex="1" parent="UCy_45d5EXnEg_kL4lnL-27">
          <mxGeometry x="1" width="20" height="20" relative="1" as="geometry">
            <mxPoint x="-27" y="7" as="offset" />
          </mxGeometry>
        </mxCell>
        <mxCell id="UCy_45d5EXnEg_kL4lnL-29" value="Game" style="html=1;dropTarget=0;whiteSpace=wrap;" vertex="1" parent="1">
          <mxGeometry x="500" y="494" width="180" height="90" as="geometry" />
        </mxCell>
        <mxCell id="UCy_45d5EXnEg_kL4lnL-30" value="" style="shape=module;jettyWidth=8;jettyHeight=4;" vertex="1" parent="UCy_45d5EXnEg_kL4lnL-29">
          <mxGeometry x="1" width="20" height="20" relative="1" as="geometry">
            <mxPoint x="-27" y="7" as="offset" />
          </mxGeometry>
        </mxCell>
        <mxCell id="UCy_45d5EXnEg_kL4lnL-31" value="Settings" style="html=1;dropTarget=0;whiteSpace=wrap;" vertex="1" parent="1">
          <mxGeometry x="480" y="280" width="180" height="90" as="geometry" />
        </mxCell>
        <mxCell id="UCy_45d5EXnEg_kL4lnL-32" value="" style="shape=module;jettyWidth=8;jettyHeight=4;" vertex="1" parent="UCy_45d5EXnEg_kL4lnL-31">
          <mxGeometry x="1" width="20" height="20" relative="1" as="geometry">
            <mxPoint x="-27" y="7" as="offset" />
          </mxGeometry>
        </mxCell>
        <mxCell id="UCy_45d5EXnEg_kL4lnL-33" value="Tutorial" style="html=1;dropTarget=0;whiteSpace=wrap;" vertex="1" parent="1">
          <mxGeometry x="420" y="20" width="180" height="90" as="geometry" />
        </mxCell>
        <mxCell id="UCy_45d5EXnEg_kL4lnL-34" value="" style="shape=module;jettyWidth=8;jettyHeight=4;" vertex="1" parent="UCy_45d5EXnEg_kL4lnL-33">
          <mxGeometry x="1" width="20" height="20" relative="1" as="geometry">
            <mxPoint x="-27" y="7" as="offset" />
          </mxGeometry>
        </mxCell>
        <mxCell id="UCy_45d5EXnEg_kL4lnL-35" value="MainWindow" style="html=1;dropTarget=0;whiteSpace=wrap;" vertex="1" parent="1">
          <mxGeometry x="230" y="120" width="170" height="90" as="geometry" />
        </mxCell>
        <mxCell id="UCy_45d5EXnEg_kL4lnL-36" value="" style="shape=module;jettyWidth=8;jettyHeight=4;" vertex="1" parent="UCy_45d5EXnEg_kL4lnL-35">
          <mxGeometry x="1" width="20" height="20" relative="1" as="geometry">
            <mxPoint x="-27" y="7" as="offset" />
          </mxGeometry>
        </mxCell>
        <mxCell id="UCy_45d5EXnEg_kL4lnL-37" value="" style="rounded=0;orthogonalLoop=1;jettySize=auto;html=1;endArrow=halfCircle;endFill=0;endSize=6;strokeWidth=1;sketch=0;" edge="1" target="UCy_45d5EXnEg_kL4lnL-39" parent="1" source="UCy_45d5EXnEg_kL4lnL-40">
          <mxGeometry relative="1" as="geometry">
            <mxPoint x="300" y="330" as="sourcePoint" />
          </mxGeometry>
        </mxCell>
        <mxCell id="UCy_45d5EXnEg_kL4lnL-38" value="" style="rounded=0;orthogonalLoop=1;jettySize=auto;html=1;endArrow=oval;endFill=0;sketch=0;sourcePerimeterSpacing=0;targetPerimeterSpacing=0;endSize=10;" edge="1" target="UCy_45d5EXnEg_kL4lnL-39" parent="1" source="UCy_45d5EXnEg_kL4lnL-35">
          <mxGeometry relative="1" as="geometry">
            <mxPoint x="240" y="305" as="sourcePoint" />
          </mxGeometry>
        </mxCell>
        <mxCell id="UCy_45d5EXnEg_kL4lnL-39" value="" style="ellipse;whiteSpace=wrap;html=1;align=center;aspect=fixed;fillColor=none;strokeColor=none;resizable=0;perimeter=centerPerimeter;rotatable=0;allowArrows=0;points=[];outlineConnect=1;" vertex="1" parent="1">
          <mxGeometry x="305" y="290" width="10" height="10" as="geometry" />
        </mxCell>
        <mxCell id="UCy_45d5EXnEg_kL4lnL-40" value="startDoodleGame()" style="text;html=1;align=center;verticalAlign=middle;resizable=0;points=[];autosize=1;strokeColor=none;fillColor=none;" vertex="1" parent="1">
          <mxGeometry x="230" y="320" width="130" height="30" as="geometry" />
        </mxCell>
        <mxCell id="UCy_45d5EXnEg_kL4lnL-41" value="" style="rounded=0;orthogonalLoop=1;jettySize=auto;html=1;endArrow=oval;endFill=0;sketch=0;sourcePerimeterSpacing=0;targetPerimeterSpacing=0;endSize=10;" edge="1" parent="1" source="UCy_45d5EXnEg_kL4lnL-35">
          <mxGeometry relative="1" as="geometry">
            <mxPoint x="323" y="220" as="sourcePoint" />
            <mxPoint x="510" y="200" as="targetPoint" />
          </mxGeometry>
        </mxCell>
        <mxCell id="UCy_45d5EXnEg_kL4lnL-42" value="" style="rounded=0;orthogonalLoop=1;jettySize=auto;html=1;endArrow=halfCircle;endFill=0;endSize=6;strokeWidth=1;sketch=0;" edge="1" parent="1" source="UCy_45d5EXnEg_kL4lnL-43">
          <mxGeometry relative="1" as="geometry">
            <mxPoint x="320" y="338" as="sourcePoint" />
            <mxPoint x="510" y="200" as="targetPoint" />
          </mxGeometry>
        </mxCell>
        <mxCell id="UCy_45d5EXnEg_kL4lnL-43" value="&amp;nbsp;void on_pushButton_2_clicked();" style="text;html=1;align=center;verticalAlign=middle;resizable=0;points=[];autosize=1;strokeColor=none;fillColor=none;" vertex="1" parent="1">
          <mxGeometry x="560" y="208" width="200" height="30" as="geometry" />
        </mxCell>
        <mxCell id="UCy_45d5EXnEg_kL4lnL-44" value="" style="rounded=0;orthogonalLoop=1;jettySize=auto;html=1;endArrow=oval;endFill=0;sketch=0;sourcePerimeterSpacing=0;targetPerimeterSpacing=0;endSize=10;exitX=1;exitY=0.5;exitDx=0;exitDy=0;" edge="1" parent="1" source="UCy_45d5EXnEg_kL4lnL-35">
          <mxGeometry relative="1" as="geometry">
            <mxPoint x="410" y="190" as="sourcePoint" />
            <mxPoint x="510" y="160" as="targetPoint" />
          </mxGeometry>
        </mxCell>
        <mxCell id="UCy_45d5EXnEg_kL4lnL-45" value="" style="rounded=0;orthogonalLoop=1;jettySize=auto;html=1;endArrow=halfCircle;endFill=0;endSize=6;strokeWidth=1;sketch=0;" edge="1" parent="1" source="UCy_45d5EXnEg_kL4lnL-46">
          <mxGeometry relative="1" as="geometry">
            <mxPoint x="600" y="140" as="sourcePoint" />
            <mxPoint x="510" y="160" as="targetPoint" />
          </mxGeometry>
        </mxCell>
        <mxCell id="UCy_45d5EXnEg_kL4lnL-46" value="void on_pushButton_6_clicked();" style="text;html=1;align=center;verticalAlign=middle;resizable=0;points=[];autosize=1;strokeColor=none;fillColor=none;" vertex="1" parent="1">
          <mxGeometry x="540" y="140" width="200" height="30" as="geometry" />
        </mxCell>
        <mxCell id="UCy_45d5EXnEg_kL4lnL-47" value="Use" style="endArrow=open;endSize=12;dashed=1;html=1;rounded=0;" edge="1" parent="1" source="UCy_45d5EXnEg_kL4lnL-46" target="UCy_45d5EXnEg_kL4lnL-33">
          <mxGeometry width="160" relative="1" as="geometry">
            <mxPoint x="677" y="248" as="sourcePoint" />
            <mxPoint x="700" y="300" as="targetPoint" />
          </mxGeometry>
        </mxCell>
      </root>
    </mxGraphModel>
  </diagram>
</mxfile>
